Coordinates
version=1
nRows=27
nColumns=38
inDegrees=no

Units are S.I. units (second, meters, Newtons, ...)
If the header above contains a line with 'inDegrees', this indicates whether rotational values are in degrees (yes) or radians (no).

endheader
time	pelvis_tilt	pelvis_list	pelvis_rotation	pelvis_tx	pelvis_ty	pelvis_tz	hip_flexion_r	hip_adduction_r	hip_rotation_r	knee_angle_r	ankle_angle_r	subtalar_angle_r	mtp_angle_r	hip_flexion_l	hip_adduction_l	hip_rotation_l	knee_angle_l	ankle_angle_l	subtalar_angle_l	mtp_angle_l	lumbar_extension	lumbar_bending	lumbar_rotation	arm_flex_r	arm_add_r	arm_rot_r	elbow_flex_r	pro_sup_r	wrist_flex_r	wrist_dev_r	arm_flex_l	arm_add_l	arm_rot_l	elbow_flex_l	pro_sup_l	wrist_flex_l	wrist_dev_l
0	0.609196	1.41018	0.882953	0.68758	-0.538643	1.03014	-0.0962238	0.0744078	-0.169944	0.223672	-0.0553261	0	0	0.439428	-0.111283	-0.304598	0	-0.129449	0	0	-0.158836	0.0562165	0.0664563	0.027795	-0.479832	0.645684	0.644062	0.814023	0	0	-0.223855	-0.505914	0.272558	0.693921	1.17878	0	0
0.01	0.598968	1.40532	0.889306	0.687166	-0.525426	1.02837	-0.0975126	0.0728268	-0.155032	0.238657	-0.0562755	0	0	0.441874	-0.111409	-0.289461	0	-0.131489	0	0	-0.151152	0.0542504	0.0695363	0.0255787	-0.476697	0.642824	0.643435	0.812259	0	0	-0.224168	-0.509232	0.266533	0.685956	1.17475	0	0
0.02	0.601355	1.40569	0.88603	0.686631	-0.511322	1.02712	-0.105567	0.0697016	-0.14741	0.251176	-0.0589461	0	0	0.441561	-0.110467	-0.283015	0	-0.131793	0	0	-0.147827	0.0504537	0.0705015	0.0221938	-0.471722	0.638719	0.641231	0.811713	0	0	-0.224618	-0.513038	0.258745	0.677824	1.17261	0	0
0.03	0.607268	1.40878	0.881067	0.685932	-0.496759	1.02623	-0.11502	0.0651307	-0.143746	0.266802	-0.0652719	0	0	0.440824	-0.10894	-0.283257	0.0255916	-0.126993	0	0	-0.147068	0.0452975	0.0698137	0.0187971	-0.464794	0.633224	0.636846	0.813441	0	0	-0.225578	-0.516194	0.246882	0.670084	1.17254	0	0
0.04	0.610637	1.41313	0.878293	0.685304	-0.481819	1.02543	-0.125084	0.0590053	-0.135658	0.282603	-0.0732413	0	0	0.438684	-0.106837	-0.285637	0.0619534	-0.119483	0	0	-0.146383	0.0387949	0.069152	0.0154343	-0.456854	0.628438	0.630558	0.817312	0	0	-0.227823	-0.520005	0.234553	0.66426	1.17357	0	0
0.05	0.621519	1.41847	0.867084	0.68472	-0.466418	1.02492	-0.13457	0.053117	-0.127913	0.303902	-0.0833703	0	0	0.43234	-0.104355	-0.286694	0.0955783	-0.113715	0	0	-0.146866	0.0322399	0.0693667	0.0128362	-0.448188	0.625575	0.621543	0.821735	0	0	-0.230626	-0.523791	0.222357	0.659284	1.17529	0	0
0.06	0.632668	1.42378	0.854553	0.684128	-0.450698	1.02447	-0.141679	0.046726	-0.117905	0.329942	-0.0963787	0	0	0.423757	-0.0999888	-0.284623	0.120641	-0.117514	0	0	-0.146458	0.0255158	0.0697678	0.0105979	-0.439265	0.624151	0.610913	0.826102	0	0	-0.234853	-0.527368	0.210005	0.655063	1.17712	0	0
0.07	0.633034	1.42756	0.853169	0.683351	-0.434964	1.02399	-0.143027	0.0396987	-0.105548	0.361749	-0.113065	0	0	0.417269	-0.0936831	-0.280999	0.137227	-0.136661	0	0	-0.143108	0.0184612	0.06908	0.00873234	-0.429815	0.623595	0.5987	0.829472	0	0	-0.239547	-0.530415	0.197301	0.650544	1.17755	0	0
0.08	0.546397	1.426	0.938785	0.68284	-0.419693	1.02188	-0.131066	0.0242581	-0.085238	0.392851	-0.132999	0	0	0.425608	-0.0815979	-0.275409	0.154601	-0.161761	0	0	-0.124602	0.00350896	0.0651907	0.00429588	-0.417718	0.62227	0.587431	0.832882	0	0	-0.251332	-0.53671	0.181193	0.651403	1.17672	0	0
0.09	0.581608	1.4281	0.906386	0.681176	-0.404248	1.02291	-0.121636	0.0242028	-0.0765948	0.44662	-0.162801	0	0	0.418084	-0.0824562	-0.271413	0.171412	-0.177981	0	0	-0.125369	0.00301838	0.0620435	0.00669634	-0.408694	0.624657	0.570617	0.832982	0	0	-0.248859	-0.535129	0.171759	0.639981	1.17722	0	0
0.1	0.546127	1.4282	0.944106	0.679802	-0.389406	1.02263	-0.104005	0.0148349	-0.0618384	0.498409	-0.195917	0	0	0.420182	-0.0780111	-0.265371	0.196445	-0.178261	0	0	-0.116656	-0.00520253	0.0570355	0.00623992	-0.399629	0.625634	0.559048	0.831686	0	0	-0.252072	-0.536973	0.159536	0.635507	1.17625	0	0
0.11	0.467971	1.42344	1.0302	0.677634	-0.375491	1.02215	-0.0737702	0.00227932	-0.0515431	0.557469	-0.235538	0	0	0.433008	-0.0669899	-0.244638	0.22762	-0.16966	0	0	-0.101754	-0.0155192	0.0462499	0.0082114	-0.388774	0.629171	0.542789	0.829539	0	0	-0.25163	-0.538734	0.150833	0.627987	1.17493	0	0
0.12	0.431706	1.42425	1.06985	0.676196	-0.361497	1.02224	-0.0506012	-0.00671792	-0.0373669	0.614067	-0.275121	0	0	0.434694	-0.0612527	-0.234468	0.258789	-0.156409	0	0	-0.0970558	-0.0236755	0.040167	0.0100268	-0.381809	0.632377	0.533918	0.827098	0	0	-0.251286	-0.542088	0.144965	0.625666	1.17103	0	0
0.13	0.337209	1.42287	1.16861	0.675332	-0.347975	1.02097	-0.0300835	-0.0165367	-0.025949	0.644246	-0.313906	0	0	0.442285	-0.0479459	-0.224566	0.290192	-0.13888	0	0	-0.0855233	-0.0399792	0.0318914	0.0082572	-0.37443	0.632742	0.531138	0.826207	0	0	-0.257176	-0.552197	0.140635	0.63347	1.16316	0	0
0.14	0.292465	1.42463	1.21638	0.674095	-0.334791	1.02123	-0.00586194	-0.0248823	-0.0117376	0.699007	-0.356373	0	0	0.440316	-0.0399863	-0.221394	0.314801	-0.121532	0	0	-0.0850561	-0.0491669	0.0281717	0.0101747	-0.369977	0.633856	0.526408	0.825246	0	0	-0.252227	-0.559488	0.145527	0.635421	1.15455	0	0
0.15	0.296322	1.42815	1.21216	0.672521	-0.322064	1.02291	0.0328135	-0.0308928	0.00816324	0.788275	-0.414355	0	0	0.43102	-0.0387732	-0.223051	0.332776	-0.105813	0	0	-0.092576	-0.0500208	0.0317142	0.0146699	-0.369635	0.635752	0.520758	0.821584	0	0	-0.235112	-0.56243	0.159943	0.629479	1.14756	0	0
0.16	0.251465	1.43075	1.25662	0.67158	-0.309401	1.02343	0.0612679	-0.037413	0.0227854	0.842525	-0.466607	0	0	0.423369	-0.0313711	-0.226593	0.348227	-0.0926968	0	0	-0.0941799	-0.0586123	0.03334	0.0142596	-0.369726	0.633605	0.523709	0.818069	0	0	-0.22624	-0.571389	0.172375	0.634432	1.14015	0	0
0.17	0.16405	1.43471	1.34452	0.671157	-0.296471	1.02314	0.0664464	-0.0471955	0.0321992	0.853577	-0.489103	0	0	0.41308	-0.0176279	-0.232344	0.359879	-0.0828706	0	0	-0.0931413	-0.0746236	0.0308618	0.0103768	-0.369475	0.628655	0.533642	0.817136	0	0	-0.226935	-0.58562	0.179205	0.649961	1.13427	0	0
0.18	0.177264	1.43789	1.32442	0.670252	-0.284283	1.02528	0.116938	-0.0449708	0.0507569	0.940953	-0.525924	0	0	0.397211	-0.0192596	-0.241735	0.364569	-0.0750227	0	0	-0.099977	-0.0739721	0.0407996	0.0136254	-0.372057	0.626368	0.532863	0.815137	0	0	-0.208809	-0.589202	0.196949	0.648637	1.13196	0	0
0.19	0.158141	1.4417	1.33846	0.669712	-0.271723	1.02653	0.142739	-0.0458381	0.0642384	0.985795	-0.522991	0	0	0.380385	-0.0154225	-0.251224	0.367242	-0.0670621	0	0	-0.102376	-0.0784739	0.045478	0.0137057	-0.37428	0.623022	0.536968	0.813498	0	0	-0.200603	-0.596227	0.207106	0.65523	1.13293	0	0
0.2	0.154567	1.44518	1.3381	0.669038	-0.259188	1.0279	0.167173	-0.0448044	0.0744622	1.02779	-0.498689	0	0	0.362573	-0.0128251	-0.259089	0.367534	-0.0587439	0	0	-0.104372	-0.0804199	0.0490724	0.0140252	-0.376783	0.619609	0.539869	0.811842	0	0	-0.192835	-0.602181	0.215346	0.662661	1.13579	0	0
0.21	0.166414	1.44775	1.32431	0.66819	-0.246702	1.02935	0.191128	-0.0420398	0.0801965	1.06679	-0.45898	0	0	0.344527	-0.0116121	-0.264559	0.365267	-0.0502115	0	0	-0.105516	-0.0796195	0.0509898	0.0144034	-0.37984	0.61713	0.542118	0.811792	0	0	-0.185278	-0.606969	0.221648	0.670174	1.14134	0	0
0.22	0.194351	1.44931	1.29628	0.667231	-0.234202	1.03093	0.214458	-0.0373438	0.0819599	1.10148	-0.418561	0	0	0.326433	-0.0123663	-0.267667	0.360962	-0.0436825	0	0	-0.105847	-0.0761438	0.0510598	0.0153876	-0.382947	0.616173	0.542795	0.812469	0	0	-0.17836	-0.610413	0.225164	0.677382	1.14965	0	0
0.23	0.234176	1.44972	1.25891	0.666095	-0.221692	1.03261	0.236875	-0.0317152	0.0796374	1.12994	-0.380917	0	0	0.308772	-0.0144599	-0.268085	0.354875	-0.0388291	0	0	-0.105192	-0.0708285	0.0492342	0.0158446	-0.386049	0.615569	0.5429	0.812187	0	0	-0.171995	-0.612664	0.224733	0.685315	1.15924	0	0
0.24	0.277858	1.44931	1.21954	0.664843	-0.20925	1.03436	0.259065	-0.0260145	0.0748187	1.15247	-0.352293	0	0	0.291471	-0.0169685	-0.266805	0.347242	-0.0357675	0	0	-0.103507	-0.0644823	0.0456747	0.0156446	-0.389574	0.615574	0.543775	0.813056	0	0	-0.166388	-0.614119	0.221739	0.693803	1.16793	0	0
0.25	0.324153	1.4485	1.17797	0.663626	-0.196816	1.03623	0.281626	-0.0198446	0.0697345	1.16816	-0.332256	0	0	0.273775	-0.0201915	-0.265964	0.338989	-0.0338916	0	0	-0.101351	-0.0574198	0.0420249	0.0149168	-0.393281	0.615641	0.544835	0.815212	0	0	-0.160864	-0.615002	0.21789	0.702086	1.17545	0	0
0.26	0.37036	1.44794	1.13703	0.662492	-0.184367	1.03825	0.302008	-0.0142994	0.0633739	1.17727	-0.313311	0	0	0.255103	-0.0235034	-0.266134	0.330397	-0.0329427	0	0	-0.099778	-0.0505518	0.0381522	0.0136552	-0.396453	0.614299	0.545702	0.816808	0	0	-0.155462	-0.615467	0.211978	0.710667	1.18294	0	0
